<svg width="15" height="19" viewBox="0 0 15 19" fill="none" xmlns="http://www.w3.org/2000/svg">
<path d="M11.7649 5.62217C11.7658 6.38945 11.5628 7.14411 11.1753 7.81386L12.0132 8.6238C12.6031 7.72647 12.9158 6.68519 12.9148 5.62217C12.9148 2.52203 10.3045 0 7.09589 0C3.8873 0 1.27742 2.52203 1.27742 5.62217C1.27611 6.65271 1.56995 7.66351 2.12642 8.54268L2.96968 7.72793C2.61327 7.07936 2.42729 6.35612 2.42808 5.62181C2.43001 4.42601 2.92248 3.27972 3.79758 2.43413C4.67268 1.58854 5.85903 1.11262 7.09666 1.11067C8.33429 1.11272 9.5206 1.58873 10.3956 2.43439C11.2707 3.28004 11.763 4.42637 11.7649 5.62217Z" fill="white"/>
<path d="M13.763 11.1095C13.1881 10.9676 12.6131 10.8047 12.0535 10.6466C11.8132 10.5788 11.5728 10.5107 11.3325 10.444C10.906 10.3262 10.4789 10.2078 10.0511 10.0888L9.29489 9.87884V9.46703C9.29489 9.08904 9.29579 8.71091 9.29757 8.33266C9.30064 7.49421 9.30371 6.62724 9.28837 5.7773C9.28291 5.46615 9.20535 5.16013 9.06142 4.88174C8.91748 4.60334 8.71082 4.35964 8.45662 4.16854C8.20007 3.97296 7.90147 3.83533 7.58272 3.76574C7.26397 3.69614 6.93314 3.69636 6.61448 3.76635C5.58916 3.99078 4.89922 4.84663 4.89807 5.89544C4.89577 7.42458 4.89615 8.97928 4.89807 10.4829C4.89807 11.1275 4.89807 11.772 4.89807 12.4164V12.7497C4.89807 12.7583 4.89807 12.7671 4.89807 12.7757C4.89807 12.8333 4.87436 12.8886 4.83217 12.9294C4.78997 12.9702 4.73275 12.9931 4.67308 12.9931C4.61984 12.9932 4.5683 12.975 4.5278 12.9416L4.51745 12.9312C4.51231 12.9263 4.50744 12.9211 4.50288 12.9156L4.39671 12.8045C4.3143 12.7194 4.23305 12.6316 4.15447 12.5453C3.99247 12.3636 3.82038 12.1905 3.63894 12.0268C2.77843 11.2773 1.38475 11.3461 0.59592 12.1776C-0.233923 13.0516 -0.192909 14.3107 0.692896 15.171C1.54804 16.0014 2.42004 16.8431 3.2633 17.6575C3.6995 18.0785 4.13556 18.4997 4.5715 18.9211C4.59871 18.9474 4.62362 18.9741 4.64816 19H13.7124C13.833 18.4158 13.9535 17.8316 14.0739 17.2472C14.3621 15.8458 14.6603 14.3955 14.9631 12.9723C15.1448 12.1098 14.6411 11.3261 13.763 11.1095ZM13.8726 12.6279C13.7763 13.093 13.6798 13.5581 13.5832 14.023C13.3425 15.1847 13.093 16.3858 12.855 17.5679C12.786 17.9075 12.5062 17.9049 12.4 17.9038H12.3785C10.6805 17.9038 8.9825 17.9038 7.28449 17.9038H6.20052C6.12386 17.9038 6.0472 17.9038 5.97054 17.9038C5.89388 17.9038 5.81722 17.9038 5.74056 17.9038C5.611 17.9038 5.47992 17.9038 5.34959 17.8971C5.20177 17.8903 5.06123 17.8331 4.95288 17.7357C3.72632 16.5569 2.59635 15.4673 1.50319 14.4026C1.19923 14.1063 1.07811 13.7119 1.17892 13.3441C1.27321 13.0005 1.55263 12.7357 1.92635 12.6357C2.07932 12.592 2.24079 12.5839 2.39764 12.6119C2.55449 12.6399 2.70228 12.7032 2.82902 12.7968C2.91454 12.8602 2.995 12.9298 3.06973 13.0049C3.72134 13.6345 4.32734 14.2193 4.89845 14.7711C4.95845 14.8436 5.03457 14.9021 5.12116 14.9423C5.20775 14.9825 5.30259 15.0033 5.39866 15.0033C5.56863 15.0033 5.73164 14.938 5.85182 14.8219C5.97201 14.7058 6.03953 14.5483 6.03953 14.3841C6.03953 11.6298 6.03953 8.7919 6.03953 5.99582C6.03451 5.83857 6.05205 5.6814 6.09166 5.5288C6.16012 5.30076 6.3101 5.10359 6.51491 4.97237C6.71972 4.84114 6.96607 4.78438 7.21013 4.81219C7.73487 4.86848 8.13004 5.26809 8.15074 5.76249C8.16301 6.05469 8.16186 6.34985 8.16032 6.63538C8.16032 6.72945 8.16032 6.82341 8.16032 6.91723V7.71791C8.16032 8.6808 8.16301 9.67405 8.15343 10.6525C8.15291 10.6702 8.15394 10.6879 8.15649 10.7055C8.17696 10.7141 8.19811 10.7212 8.21974 10.7266C9.63794 11.1125 11.0742 11.5102 12.4652 11.8946L13.5821 12.2031C13.6097 12.2105 13.6365 12.219 13.6664 12.2287L13.8799 12.295V12.4705C13.8799 12.4783 13.8799 12.4864 13.8799 12.4938C13.884 12.5382 13.8819 12.5829 13.8738 12.6268L13.8726 12.6279Z" fill="white"/>
</svg>
